/* XPM */
static const char *flagIcon[] = {
/* columns rows colors chars-per-pixel */
"16 16 148 2",
"   c #040C50",
".  c #020E5E",
"X  c #000C62",
"o  c #031161",
"O  c #051166",
"+  c #02136B",
"@  c #061A6E",
"#  c #0D1D6C",
"$  c #0C1D6E",
"%  c #061D75",
"&  c #0B1B73",
"*  c #0E1976",
"=  c #0B2279",
"-  c #0D2178",
";  c #0E2478",
":  c #142879",
">  c #162C7A",
",  c #172F7D",
"<  c #192B7C",
"1  c #192E85",
"2  c #163486",
"3  c #1B3282",
"4  c #1D3281",
"5  c #1C3387",
"6  c #1C3785",
"7  c #1F3586",
"8  c #1F3587",
"9  c #1D3786",
"0  c #1D3787",
"q  c #12318B",
"w  c #163488",
"e  c #223B81",
"r  c #203883",
"t  c #213886",
"y  c #223988",
"u  c #233A89",
"i  c #20388B",
"p  c #243A8B",
"a  c #253F8B",
"s  c #253E8D",
"d  c #263E8C",
"f  c #263E8D",
"g  c #25408C",
"h  c #26408D",
"j  c #28408A",
"k  c #2A408D",
"l  c #2D468E",
"z  c #294290",
"x  c #2A4690",
"c  c #2C4793",
"v  c #284794",
"b  c #2D4694",
"n  c #2D4993",
"m  c #2F4A92",
"M  c #2E4C96",
"N  c #2F4D97",
"B  c #2F4E98",
"V  c #2F4E9C",
"C  c #304A95",
"Z  c #394B90",
"A  c #344E9B",
"S  c #334F9D",
"D  c #35509B",
"F  c #35569B",
"G  c #37509C",
"H  c #39519B",
"J  c #38529F",
"K  c #39539F",
"L  c #2E53A9",
"P  c #3E57A2",
"I  c #3C5AA3",
"U  c #465CA2",
"Y  c #405CAF",
"T  c #4260A0",
"R  c #4F61A0",
"E  c #4466A8",
"W  c #4764AC",
"Q  c #4861AE",
"!  c #4B62AE",
"~  c #4C6BAA",
"^  c #566DAA",
"/  c #4F70AE",
"(  c #4F6DB7",
")  c #506EB7",
"_  c #4C70BB",
"`  c #5573B6",
"'  c #5777BB",
"]  c #687AB0",
"[  c #5E7CC2",
"{  c #597CC7",
"}  c #627FC6",
"|  c #7586BD",
" . c #6081C4",
".. c #6081C5",
"X. c #6281C5",
"o. c #6C86C6",
"O. c #6484C8",
"+. c #6987C9",
"@. c #6488C9",
"#. c #698AC9",
"$. c #6D8EC8",
"%. c #6C8CCD",
"&. c #708AC3",
"*. c #6F92CE",
"=. c #7890C3",
"-. c #7C96CD",
";. c #7D9BD3",
":. c #7E9BD3",
">. c #7D9DD3",
",. c #7B9BD4",
"<. c #7FA1D6",
"1. c #879DCC",
"2. c #839FD6",
"3. c #81A1D5",
"4. c #83A0D6",
"5. c #85A0D6",
"6. c #86A7D9",
"7. c #93AAD8",
"8. c #90AADB",
"9. c #95ACD8",
"0. c #90AEDE",
"q. c #92B3DD",
"w. c #92B0DF",
"e. c #AFB4D7",
"r. c #A1B8DD",
"t. c #A7BAE3",
"y. c #A9C8DF",
"u. c #A9C3E8",
"i. c #B5C4E0",
"p. c #B0C2E5",
"a. c #B3C3EB",
"s. c #B0CCED",
"d. c #C1D1ED",
"f. c #CCD8EC",
"g. c #D2D8EF",
"h. c #D3D8F1",
"j. c #D4E5F6",
"k. c #E4EBFB",
"l. c #E1EEFD",
"z. c #E8EEFE",
"x. c #ECEFFD",
"c. c #E6F0FC",
"v. c #E6F2FF",
"b. c #EDF0FF",
"n. c #F1F6FF",
"m. c #FBFEFF",
"M. c gray100",
"N. c None",
/* pixels */
"N.N.N.N.N.N.N.N.N.N.N.N.N.N.N.N.",
"N.N.N.N.N.N.N.N.N.N.N.N.s.N.N.N.",
"N.N.N.N.N.N.$.>.<.3.3.0.w.N.N.N.",
"D K ! ' X.+. .[ O.@.*.,.6.,.N.N.",
"n c C I W ) ` ;.2.2.d.8.%.#.N.N.",
"e H n 6 1.=.! X.-.p.t.v.{ } N.N.",
"N.S b N z.E &.u.h.a.' k.o.( N.N.",
"N.v z T b./ g.r.M.p.L j.~ V U N.",
"N.3 s & i.9.g.I x.e.7.z.2 u P N.",
"N.N.0 . U m.q.* w F n.^ = x A N.",
"N.N.5 k q R j.y.] | Z @ t N G > ",
"N.N.6 B j & % o X + : u s j l 4 ",
"N.N.6 f t h h < u 1 - # N.N.N.N.",
"N.N., u 6 ; O   N.N.N.N.N.N.N.N.",
"N.N.N.N.N.N.N.N.N.N.N.N.N.N.N.N.",
"N.N.N.N.N.N.N.N.N.N.N.N.N.N.N.N."
};
