/* XPM */
static const char *preferencesIcon[] = {
/* columns rows colors chars-per-pixel */
"16 16 111 2",
"   c #060816",
".  c #211E1E",
"X  c #5F090C",
"o  c #700F0F",
"O  c #343448",
"+  c #072C7D",
"@  c gray30",
"#  c #504E4F",
"$  c #5D5D5D",
"%  c #514F64",
"&  c #777575",
"*  c #8C1515",
"=  c #901515",
"-  c #981315",
";  c #981616",
":  c #A31818",
">  c #A41818",
",  c #A71919",
"<  c #AA1919",
"1  c #AE181A",
"2  c #B01919",
"3  c #B2181A",
"4  c #B01A1A",
"5  c #B91819",
"6  c #D51F1F",
"7  c #D3221D",
"8  c #C62626",
"9  c #D02A2A",
"0  c #D9413D",
"q  c #895168",
"w  c #827B78",
"e  c #837D7A",
"r  c #847E7C",
"t  c #E34C4C",
"y  c #E44F4E",
"u  c #E45050",
"i  c #E55758",
"p  c #E55859",
"a  c #E76264",
"s  c #E76365",
"d  c #E76767",
"f  c #162B80",
"g  c #103090",
"h  c #083CA6",
"j  c #083EAA",
"k  c #0641B2",
"l  c #0041CB",
"z  c #0042CB",
"x  c #0245CD",
"c  c #0144CE",
"v  c #0146CE",
"b  c #074DCD",
"n  c #0A5FD4",
"m  c #1762CE",
"M  c #1D6AD0",
"N  c #1F6BD0",
"B  c #1E68D5",
"V  c #1664DE",
"C  c #247EE5",
"Z  c #247EE6",
"A  c #2681E8",
"S  c #2884E9",
"D  c #2986EB",
"F  c #2A86EB",
"G  c #2A87EB",
"H  c #2A88EB",
"J  c #2E8CEC",
"K  c #6E87D4",
"L  c gray56",
"P  c #908D8D",
"I  c #918F92",
"U  c #929295",
"Y  c #959595",
"T  c #979797",
"R  c #A19F9E",
"E  c #A4A4A4",
"W  c #A5A5A5",
"Q  c #ACA9AC",
"!  c #ADABAC",
"~  c #AEAFAE",
"^  c #B1AFAF",
"/  c #ABADB0",
"(  c #B9B9B9",
")  c #EA898A",
"_  c #F0A4A2",
"`  c #F2AEAB",
"'  c #F3B4B2",
"]  c #C1C0C1",
"[  c #CFCAC7",
"{  c #C8C8C9",
"}  c #CACACA",
"|  c #D0CCCA",
" . c gray83",
".. c #D8D3D1",
"X. c #DDDDDD",
"o. c #F9DDDC",
"O. c #F9DEDF",
"+. c #E4E4E4",
"@. c #E7E7E7",
"#. c #E9E9E9",
"$. c gray92",
"%. c #EFEFEF",
"&. c #F9E0E0",
"*. c #F9E0E1",
"=. c #F4F4F4",
"-. c gray97",
";. c #FBF6F7",
":. c gray99",
">. c #FDFCFC",
",. c gray100",
"<. c None",
/* pixels */
"! ^ <.<.<.<.<.<.<.<.& ] ( ~ <.<.",
". =.R <.<.<.<.<.<.Y >.+.# <.<.<.",
"<.<.P ..<.<.<.<.<.%.=.U U Q T <.",
"<.<.<.r | <.<.<.<.%.$.{ ! U >.<.",
"<.<.<.<.e [ <.<.<.X.W @.+.%.{ <.",
"<.<.<.<.<.w <.<.q >.E W $. .@ <.",
"<.<.<.<.<.<.) y 4 ;.% O $ <.<.<.",
"<.<.<.<.<.<.6 ` < - g <.<.<.<.<.",
"<.<.<.<.<.n X 7 ' 4 1 <.<.<.<.<.",
"<.<.<.<.N Z x K 5 _ u - <.<.<.<.",
"<.<.<.N Z x H + <.4 o.i * <.<.<.",
"<.<.m S x F j <.<.<.4 *.s = <.<.",
"<.B F l H j <.<.<.<.> 8 *.s > <.",
"b F x F k <.<.<.<.<.<.> 9 o.p 0 ",
"<.V J + <.<.<.<.<.<.<.<.o t d <.",
"<.<.  <.<.<.<.<.<.<.<.<.<.<.<.<."
};
